<svg width="23" height="28" viewBox="0 0 23 28" fill="none" xmlns="http://www.w3.org/2000/svg">
<path d="M19.5319 12.9713C19.5351 14.46 19.2483 15.9286 18.6948 17.2574C18.0386 18.8498 17.0297 20.1891 15.7813 21.1254C14.5328 22.0617 13.0941 22.558 11.6261 22.5587C10.3986 22.5626 9.18756 22.2148 8.0918 21.5436L2.79028 23.6866L4.55746 17.2574C4.00399 15.9286 3.71717 14.46 3.72037 12.9713C3.72094 11.1911 4.13018 9.44629 4.90226 7.93226C5.67433 6.41823 6.77875 5.19478 8.0918 4.39895C9.18756 3.72775 10.3986 3.37992 11.6261 3.3838H12.0912C14.0298 3.51351 15.8609 4.50583 17.2338 6.17077C18.6067 7.83571 19.425 10.0563 19.5319 12.4073V12.9713Z" stroke="black" stroke-width="2" stroke-linecap="round" stroke-linejoin="round"/>
</svg>
